<?xml version="1.0" ?><!DOCTYPE svg  PUBLIC '-//W3C//DTD SVG 1.1//EN'  'http://www.w3.org/Graphics/SVG/1.1/DTD/svg11.dtd'><svg enable-background="new 0 0 512 512" height="512px" id="Layer_1" version="1.1" viewBox="0 0 512 512" width="512px" xml:space="preserve" xmlns="http://www.w3.org/2000/svg" xmlns:xlink="http://www.w3.org/1999/xlink"><g><rect fill="#464847" height="40" width="50" x="376" y="122"/><path d="M484,362.814C484,390.531,459.483,413,429.24,413H83.759C53.517,413,29,390.531,29,362.814V192.185    C29,164.469,53.517,142,83.759,142H429.24c30.243,0,54.76,22.469,54.76,50.185V362.814z" fill="#85ADAD"/><path d="M429.24,142H83.76C53.517,142,29,164.469,29,192.186V278h455v-85.814    C484,164.469,459.483,142,429.24,142z" fill="#E0EBEB" opacity="0.1"/><path d="M64.06,278.25c0-85.778,69.537-155.315,155.314-155.315c85.777,0,155.314,69.535,155.313,155.315    c0.002,85.774-69.535,155.312-155.313,155.314C133.596,433.562,64.06,364.024,64.06,278.25z" fill="#464847"/><path d="M96.188,278.247c0-68.032,55.152-123.182,123.185-123.183c68.035,0,123.187,55.151,123.187,123.183    c0,68.036-55.153,123.186-123.186,123.186C151.34,401.433,96.189,346.283,96.188,278.247z" fill="#666766"/><circle cx="219.773" cy="277.788" fill="#3D3D3D" r="72.146"/><circle cx="219.773" cy="277.788" fill="#2E2E2E" r="60.449"/><circle cx="219.773" cy="277.788" fill="#3D3D3D" r="51.809"/><circle cx="219.772" cy="277.788" fill="#333333" r="43.744"/><circle cx="219.773" cy="277.788" fill="#2E2E2E" r="36.787"/><circle cx="219.488" cy="277.788" fill="#3D3D3D" r="27.216"/><circle cx="219.488" cy="277.788" fill="#292929" r="9.807"/><linearGradient gradientTransform="matrix(1 0 0 1 -172.8833 182.6211)" gradientUnits="userSpaceOnUse" id="SVGID_1_" x1="387.0391" x2="438.4668" y1="77.1382" y2="77.1382"><stop offset="0" style="stop-color:#D9D9D9"/><stop offset="0.6816" style="stop-color:#DCDCDC"/><stop offset="1" style="stop-color:#E1E1E1"/></linearGradient><circle cx="239.869" cy="259.759" fill="url(#SVGID_1_)" opacity="0.1" r="25.714"/><circle cx="401.488" cy="180.788" fill="#3D3D3D" r="27.217"/><circle cx="401.488" cy="180.788" fill="#B3A1A1" r="9.807"/></g></svg>