<?xml version="1.0" ?><!DOCTYPE svg  PUBLIC '-//W3C//DTD SVG 1.1//EN'  'http://www.w3.org/Graphics/SVG/1.1/DTD/svg11.dtd'><svg enable-background="new 0 0 512 512" height="512px" id="Layer_1" version="1.1" viewBox="0 0 512 512" width="512px" xml:space="preserve" xmlns="http://www.w3.org/2000/svg" xmlns:xlink="http://www.w3.org/1999/xlink"><g><path d="M47,461V307.457c0-17.924,13.437-32.453,29.934-32.453l374.404-50.914    c16.498,0,29.888,14.406,29.888,32.328L467.938,461H47z" fill="#C5C9C7"/><path d="M466.502,461.246V146.948l-95.701-95.701h-307.6c-17.021,0-30.817,13.796-30.817,30.817v379.183H466.502z" fill="#E3E5E4"/><rect fill="#F67876" height="42" width="318" x="69" y="92"/><path d="M400.691,146.377h65.811l-95.131-95.131v65.811C371.371,134.321,383.428,146.377,400.691,146.377z" fill="#F0F0F0"/><rect fill="#63BCB8" height="138" width="125" x="69" y="173"/><rect fill="#ABB7B7" height="25" width="211" x="222" y="173"/><rect fill="#ABB7B7" height="26" width="211" x="222" y="210"/><rect fill="#ABB7B7" height="25" width="211" x="222" y="248"/><rect fill="#ABB7B7" height="26" width="128" x="222" y="285"/><path d="M185.129,233.754c0-16.094-8.653-30.333-21.556-37.994L141.397,234h43.716    C185.117,234,185.129,233.951,185.129,233.754z" fill="#E3E5E4"/><path d="M126.157,244l22.176-38.379c-6.563-3.896-14.223-6.126-22.409-6.126c-24.28,0-43.965,19.691-43.965,43.971    c0,24.281,19.685,43.939,43.965,43.939c24.083,0,43.635-19.405,43.949-43.405H126.157z" fill="#E3E5E4"/><rect fill="#939999" height="25" width="364" x="69" y="330"/><rect fill="#ABB7B7" height="26" width="195" x="69" y="367"/><rect fill="#ABB7B7" height="25" width="195" x="69" y="405"/><rect fill="#ABB7B7" height="19" width="364" x="69" y="442"/></g></svg>